# xmcd
# 
# Track frame offsets:
#     150
#     14529
#     33866
#     42888
#     54911
#     69085
#     80952
#     96483
#     107489
#     131594
#     144881
#     157707
#     169800
#     180577
#     188418
#     202393
#     223691
#     237677
# 
# Disc length: 3363
# 
# Revision: 1
# Processed by: cddbd v1.5.2PL0 Copyright (c) Steve Scherf et al.
# Submitted via: fre:ac v1.0.31
# 
DISCID=f50d2112
DTITLE=R&B - Rocksteady and Early Reggae
DYEAR=0
DGENRE=R&B
TTITLE0=Stars
TTITLE1=Fancy Make Up
TTITLE2=Whisper To Me
TTITLE3=Party Time
TTITLE4=Joy In The Morning
TTITLE5=My Ambition
TTITLE6=Love Won't Come Easy
TTITLE7=Hurting Me
TTITLE8=Row Fisherman Row
TTITLE9=Home, Home, Home
TTITLE10=Our Thing
TTITLE11=When I Fall In Love
TTITLE12=Throw Me Corn
TTITLE13=Lick It Back
TTITLE14=Me And You
TTITLE15=Easy Take It Easy
TTITLE16=Pack Up
TTITLE17=Moving Away
EXTD=
EXTT0=
EXTT1=
EXTT2=
EXTT3=
EXTT4=
EXTT5=
EXTT6=
EXTT7=
EXTT8=
EXTT9=
EXTT10=
EXTT11=
EXTT12=
EXTT13=
EXTT14=
EXTT15=
EXTT16=
EXTT17=
PLAYORDER=
